<svg xmlns="http://www.w3.org/2000/svg" viewBox="0 0 24 24" width="24" height="24">
  <path d="M0 0h24v24H0z" fill="none"/>
  <path fill="#ff6000" d="M14 2H6a2 2 0 0 0-2 2v16a2 2 0 0 0 2 2h12a2 2 0 0 0 2-2V8l-6-6zm-2 14c0 1.1-.9 2-2 2s-2-.9-2-2 .9-2 2-2 2 .9 2 2zm-2-7.5c2.49 0 4.5 2.01 4.5 4.5s-2.01 4.5-4.5 4.5-4.5-2.01-4.5-4.5 2.01-4.5 4.5-4.5zM13 9V3.5L18.5 9H13z"/>
  <path fill="#ff6000" d="M10 8.5a5.5 5.5 0 1 0 0 11 5.5 5.5 0 0 0 0-11zm0 2a3.5 3.5 0 1 1 0 7 3.5 3.5 0 0 1 0-7z"/>
  <path fill="#ff6000" d="M12 6l-1-1h-2l-1 1H5v2h14V6z"/>
  <circle cx="10" cy="14" r="1.5" fill="#ff6000"/>
</svg>